<svg xmlns="http://www.w3.org/2000/svg" xmlns:xlink="http://www.w3.org/1999/xlink" width="969.281" height="969.281"><defs><path id="a" d="M0 0h969.281v969.281H0z"/></defs><clipPath id="b"><use xlink:href="#a" overflow="visible"/></clipPath><path clip-path="url(#b)" fill="#C30F23" d="M862.896 921.998c32.642 0 59.102-26.459 59.103-59.102h-.001V106.387h.001c0-32.643-26.46-59.102-59.102-59.104V52h-.001v-4.717H106.384v.002c-32.642 0-59.102 26.459-59.102 59.102v756.511c.001 32.641 26.46 59.1 59.102 59.1h756.512z"/><path clip-path="url(#b)" fill="#C30F23" d="M969.28 106.387C969.281 47.633 921.651.002 862.897.002H106.384V0C47.63 0 0 47.633 0 106.387v756.51c0 58.754 47.629 106.385 106.384 106.385v-23.643c-45.698 0-82.743-37.045-82.743-82.742h-.001v-756.51h.001c.001-45.699 37.046-82.744 82.743-82.746v.002H862.897c45.697.002 82.741 37.047 82.741 82.744v756.512c0 45.695-37.047 82.742-82.742 82.742H106.384v23.641h756.512c58.755 0 106.385-47.631 106.385-106.385h-.001v-756.51z"/><path clip-path="url(#b)" fill="#FFF" d="M106.385 138.893c-6.528 0-11.821 5.293-11.821 11.822v103.428h.001c0 32.641 26.461 59.103 59.102 59.103v-.001h45.804v152.189c0 6.529 5.292 11.822 11.82 11.822 6.529 0 11.821-5.293 11.821-11.822V313.245h45.805v.001l.032-.001h2.923v-.075c31.267-1.539 56.147-27.377 56.147-59.027V150.715c0-6.529-5.292-11.822-11.82-11.822-6.529 0-11.821 5.293-11.821 11.822v44.326h-81.266v-79.789c0-6.527-5.292-11.82-11.821-11.82-6.528 0-11.82 5.293-11.82 11.82v79.789h-81.266v-44.326c0-6.529-5.292-11.822-11.82-11.822m116.727 79.787h81.266v35.463c0 19.586-15.877 35.461-35.461 35.461v.002h-45.805V218.68zm-23.641 0v70.926h-45.804v-.002c-19.585 0-35.461-15.875-35.461-35.461h-.001V218.68h81.266zM712.924 739.523c19.177 0 34.723-15.545 34.723-34.725 0-19.176-15.546-34.721-34.723-34.721-19.178 0-34.723 15.545-34.723 34.721 0 19.181 15.545 34.725 34.723 34.725m0-45.804c6.12 0 11.082 4.961 11.082 11.08 0 6.121-4.962 11.082-11.082 11.082s-11.082-4.961-11.082-11.082c0-6.119 4.962-11.08 11.082-11.08M474.298 139.439c-65.451 5.967-116.722 60.988-116.728 127.99v.012c0 6.527 5.292 11.821 11.82 11.821s11.821-5.294 11.821-11.821l-.001-.006c.002-24.818 8.627-47.617 23.034-65.58 1.539 27.828 16.95 51.959 39.439 65.586-23.718 14.371-39.57 40.426-39.57 70.184h.008-.008v127.808c0 6.53 5.292 11.823 11.821 11.823 6.528 0 11.821-5.293 11.821-11.823a.02.02 0 0 0-.001-.005V337.625h-.006.006c0-32.227 26.119-58.352 58.341-58.365l.022.002.021-.002c32.223.013 58.342 26.138 58.342 58.365h.006-.006v127.808c0 6.53 5.293 11.823 11.82 11.823 6.529 0 11.821-5.293 11.821-11.823h.001V337.625h-.01.008c0-29.758-15.852-55.813-39.571-70.184 22.489-13.627 37.901-37.756 39.439-65.586 14.408 17.965 23.033 40.768 23.033 65.586h.001c0 6.527 5.293 11.821 11.82 11.821 6.529 0 11.821-5.294 11.821-11.821l-.001-.021c-.012-66.998-51.281-122.012-116.727-127.981V115.99h-.037c.016-.244.037-.488.037-.738 0-6.528-5.293-11.821-11.82-11.821-6.529 0-11.821 5.293-11.821 11.821 0 .25.022.494.038.738h-.037v23.449zm11.818 23.094c21.603 0 41.68 6.533 58.365 17.727v16.998c0 32.232-26.131 58.363-58.363 58.363-32.234 0-58.364-26.131-58.364-58.363h.001v-17c16.686-11.192 36.759-17.725 58.361-17.725"/><path clip-path="url(#b)" fill="#FFF" d="M852.554 810.445c-.003 19.176-15.547 34.722-34.724 34.722v.001H701.102v23.641h116.729c32.223 0 58.343-26.113 58.362-58.33l.001-.033V575.514l-.001-.025c-.013-32.223-26.137-58.338-58.361-58.34h-116.73c-32.232 0-58.36 26.131-58.362 58.363V810.446c0 32.234 26.13 58.363 58.362 58.363v-23.641c-19.176-.001-34.72-15.544-34.72-34.723h-.001l-.001-.016V575.533l.001-.018v-.004c.001-19.176 15.545-34.72 34.723-34.72.011 0 .021-.003.033-.003h58.33v63.535h-69.445c-6.528 0-11.82 5.293-11.82 11.822 0 6.527 5.292 11.818 11.82 11.818h69.445v65.752c0 23.529 13.929 43.791 33.985 53.027v32.67H690.021v.003c-6.528 0-11.82 5.292-11.82 11.821 0 6.525 5.292 11.818 11.82 11.818l.033-.002h115.185l.032.002c6.528 0 11.82-5.293 11.82-11.818V752.06c.247.004.49.021.738.021h.001v-.005h34.724v58.369zm-58.46-91.396c-6.758-6.336-10.985-15.338-10.985-25.332h-.001v-65.752h24.381c19.176 0 34.723-15.545 34.723-34.721 0-6.529-5.292-11.822-11.82-11.822s-11.821 5.293-11.821 11.822c0 6.119-4.961 11.08-11.081 11.08h-24.381v-28.057l.001-.016-.001-.016v-35.447h34.69c.012 0 .022.003.033.003h.021c19.166.011 34.7 15.552 34.7 34.722h.002v.002l.001.018v93.803h-.742c-29.293 0-53.54 21.582-57.72 49.713m23.737 9.389v.002c-.248 0-.492-.014-.739-.018v-.723c0-19.174 15.545-34.721 34.723-34.721h.74v35.459h-34.724zM586.223 856.617v.002c0 6.527 5.292 11.82 11.821 11.82 6.527 0 11.82-5.293 11.82-11.82V774.43h.185c0-32.438-26.295-58.732-58.733-58.732v.18c-19.294-.1-34.906-15.768-34.906-35.088h-.002v-16.254h16.623c32.438 0 58.733-26.295 58.733-58.732v-77.557l.001-.016c0-6.529-5.293-11.82-11.82-11.82-6.53 0-11.821 5.291-11.821 11.82v77.572h-.002c-.001 19.381-15.711 35.09-35.091 35.09h-.001v.002h-16.622V517.166l.001-.018c0-6.527-5.292-11.82-11.819-11.82-6.529 0-11.822 5.293-11.822 11.82V680.789c0 32.438 26.295 58.734 58.733 58.734v-.18c19.233.1 34.802 15.666 34.901 34.902h-.179v82.372zM653.083 138.893c-6.528 0-11.821 5.293-11.821 11.822v103.428h.001c0 32.643 26.461 59.103 59.102 59.103h45.805v152.188c0 6.529 5.292 11.822 11.82 11.822s11.82-5.293 11.82-11.822V313.246h48.759v-.076c31.27-1.539 56.149-27.377 56.149-59.027V150.715c0-6.529-5.293-11.822-11.821-11.822-6.529 0-11.821 5.293-11.821 11.822v44.326H769.81v-79.789c0-6.527-5.292-11.82-11.82-11.82s-11.82 5.293-11.82 11.82v79.789h-81.267v-44.326c-.001-6.529-5.294-11.822-11.82-11.822m116.727 79.789h81.266v35.461c0 19.586-15.877 35.461-35.461 35.461v.002H769.81v-70.924zm-23.641 0v70.924h-45.805c-19.584 0-35.46-15.877-35.46-35.463h-.002v-35.461h81.267zM146.647 693.348a58.93 58.93 0 0 0 6.28-.346v93.803l.001.031c.018 45.277 36.725 81.973 82.004 81.973H316.198c6.528 0 11.821-5.291 11.821-11.82s-5.293-11.82-11.821-11.82h-81.266c-32.234 0-58.364-26.129-58.364-58.363V770.55h22.871l.032.002c.124 0 .245-.015.369-.02v.02c32.438 0 58.733-26.295 58.733-58.732V693.089c1.824.172 3.672.26 5.541.26 32.43 0 58.722-26.285 58.732-58.713l.001-.02-.001-.014c-.007-31.811-25.309-57.697-56.885-58.674v-.047h-7.388v-35.092h12.559c6.528 0 11.821-5.293 11.821-11.818 0-6.529-5.293-11.822-11.821-11.822h-24.38c-6.528 0-11.82 5.293-11.82 11.822v58.732c0 6.527 5.292 11.82 11.82 11.82l.033-.002h17.329c19.381 0 35.092 15.713 35.092 35.094s-15.711 35.092-35.092 35.092c-1.886 0-3.737-.15-5.541-.438v-22.834c0-6.529-5.292-11.82-11.821-11.82-6.528 0-11.82 5.291-11.82 11.82v65.383c0 19.381-15.711 35.093-35.092 35.093v.017c-.124-.004-.245-.017-.369-.017h-22.903V646.436c0-6.529-5.292-11.82-11.82-11.82-6.528 0-11.821 5.291-11.821 11.82v22.697a35.2 35.2 0 0 1-6.279.574c-19.381 0-35.093-15.711-35.093-35.092 0-19.359 15.677-35.057 35.028-35.092h18.904c6.528 0 11.82-5.293 11.82-11.82v-58.732c0-6.529-5.292-11.822-11.82-11.822H141.107c-6.528 0-11.821 5.293-11.821 11.822 0 6.525 5.293 11.818 11.821 11.818h12.559v35.094h-7.018v-.002h-.001l-.064.002h-.305v.008c-32.266.199-58.363 26.41-58.363 58.725.001 32.437 26.295 58.732 58.732 58.732M386.743 763.9c-.199 19.213-15.825 34.725-35.082 34.725h-.001c-6.529 0-11.821 5.291-11.821 11.82 0 6.527 5.292 11.82 11.821 11.82v.371c32.438 0 58.733-26.297 58.733-58.734V564.8c19.381 0 35.092 15.71 35.092 35.091 0 .125-.008.246-.009.369h.397v.002h-.388v226.436h23.641v-223.92c.232-.924.369-1.889.369-2.885 0-1.184-.179-2.326-.502-3.404-1.947-30.678-27.431-54.961-58.6-54.961v.002h-23.641c-6.529 0-11.82-5.293-11.82-11.822-.002-6.527-5.293-11.818-11.821-11.818-6.529 0-11.821 5.293-11.821 11.82l.002.033c.019 19.57 15.887 35.428 35.46 35.428V763.9h-.009zM485.38 862.16c6.527 0 11.82-5.293 11.82-11.82 0-6.529-5.293-11.82-11.82-11.822h-4.434c-6.527 0-11.82-5.291-11.82-11.818h-23.64c0 19.09 15.084 34.649 33.983 35.424v.037h5.911z"/></svg>